<svg xmlns="http://www.w3.org/2000/svg" width="210mm" height="297mm" viewBox="0 0 210 297">
  <defs>
    <style>
      .fine { stroke: #cfcfcf; stroke-width: 0.18; }
      .major { stroke: #8a8a8a; stroke-width: 0.32; }
      .axis { stroke: #111; stroke-width: 0.55; }
      .diag { stroke: #111; stroke-width: 0.35; stroke-dasharray: 2 1.5; }
      .border { fill: none; stroke: #111; stroke-width: 0.55; }
      .text { font-family: Arial, Helvetica, sans-serif; fill: #111; }
      .small { font-size: 3.2px; }
      .body { font-size: 3.7px; }
      .title { font-size: 6px; font-weight: 700; }
      .label { font-size: 3px; fill: #333; }
    </style>
  </defs>

  <rect x="0" y="0" width="210" height="297" fill="white"/>

  <text x="5" y="8" class="text title">Camera perpendicular tramming sheet</text>
  <text x="5" y="14" class="text body">Print at 100% scale. Do not use fit-to-page. Check the 100 mm reference before use.</text>

  <!-- 200 x 200 mm tram grid -->
  <g id="grid" transform="translate(5 20)">
    <rect x="0" y="0" width="200" height="200" class="border"/>

    <!-- 10 mm grid lines -->
    <g class="fine">
      <line x1="10" y1="0" x2="10" y2="200"/>
      <line x1="20" y1="0" x2="20" y2="200"/>
      <line x1="30" y1="0" x2="30" y2="200"/>
      <line x1="40" y1="0" x2="40" y2="200"/>
      <line x1="60" y1="0" x2="60" y2="200"/>
      <line x1="70" y1="0" x2="70" y2="200"/>
      <line x1="80" y1="0" x2="80" y2="200"/>
      <line x1="90" y1="0" x2="90" y2="200"/>
      <line x1="110" y1="0" x2="110" y2="200"/>
      <line x1="120" y1="0" x2="120" y2="200"/>
      <line x1="130" y1="0" x2="130" y2="200"/>
      <line x1="140" y1="0" x2="140" y2="200"/>
      <line x1="160" y1="0" x2="160" y2="200"/>
      <line x1="170" y1="0" x2="170" y2="200"/>
      <line x1="180" y1="0" x2="180" y2="200"/>
      <line x1="190" y1="0" x2="190" y2="200"/>

      <line x1="0" y1="10" x2="200" y2="10"/>
      <line x1="0" y1="20" x2="200" y2="20"/>
      <line x1="0" y1="30" x2="200" y2="30"/>
      <line x1="0" y1="40" x2="200" y2="40"/>
      <line x1="0" y1="60" x2="200" y2="60"/>
      <line x1="0" y1="70" x2="200" y2="70"/>
      <line x1="0" y1="80" x2="200" y2="80"/>
      <line x1="0" y1="90" x2="200" y2="90"/>
      <line x1="0" y1="110" x2="200" y2="110"/>
      <line x1="0" y1="120" x2="200" y2="120"/>
      <line x1="0" y1="130" x2="200" y2="130"/>
      <line x1="0" y1="140" x2="200" y2="140"/>
      <line x1="0" y1="160" x2="200" y2="160"/>
      <line x1="0" y1="170" x2="200" y2="170"/>
      <line x1="0" y1="180" x2="200" y2="180"/>
      <line x1="0" y1="190" x2="200" y2="190"/>
    </g>

    <!-- 50 mm grid lines -->
    <g class="major">
      <line x1="50" y1="0" x2="50" y2="200"/>
      <line x1="150" y1="0" x2="150" y2="200"/>
      <line x1="0" y1="50" x2="200" y2="50"/>
      <line x1="0" y1="150" x2="200" y2="150"/>
    </g>

    <!-- center axes and diagonals -->
    <line x1="100" y1="0" x2="100" y2="200" class="axis"/>
    <line x1="0" y1="100" x2="200" y2="100" class="axis"/>
    <line x1="0" y1="0" x2="200" y2="200" class="diag"/>
    <line x1="200" y1="0" x2="0" y2="200" class="diag"/>

    <!-- concentric squares for optical centering -->
    <rect x="75" y="75" width="50" height="50" class="major" fill="none"/>
    <rect x="50" y="50" width="100" height="100" class="major" fill="none"/>
    <rect x="25" y="25" width="150" height="150" class="major" fill="none"/>

    <!-- center target -->
    <circle cx="100" cy="100" r="12.5" fill="none" class="axis"/>
    <circle cx="100" cy="100" r="5" fill="none" class="axis"/>
    <line x1="92" y1="100" x2="108" y2="100" class="axis"/>
    <line x1="100" y1="92" x2="100" y2="108" class="axis"/>

    <!-- 100 mm scale check -->
    <line x1="10" y1="192" x2="110" y2="192" class="axis"/>
    <line x1="10" y1="188" x2="10" y2="196" class="axis"/>
    <line x1="110" y1="188" x2="110" y2="196" class="axis"/>
    <text x="43" y="187" class="text label">100 mm check</text>

    <text x="3" y="-2" class="text label">200 x 200 mm camera tram grid</text>
    <text x="95" y="98" class="text label">CENTER</text>
  </g>

  <!-- Printed procedure -->
  <g transform="translate(5 230)">
    <text x="0" y="0" class="text title">Quick tramming procedure</text>
    <text x="0" y="8" class="text body">1. Tape this sheet flat to the copy stand base or a flat board.</text>
    <text x="0" y="15" class="text body">2. Set the camera height around 800-900 mm if that frames the whole grid cleanly.</text>
    <text x="0" y="22" class="text body">3. Center the camera so the crosshair sits near the image center.</text>
    <text x="0" y="29" class="text body">4. Adjust tilt until opposite grid edges look equally long and the diagonals cross at center.</text>
    <text x="0" y="36" class="text body">5. Rotate the camera until the 100 mm centerlines are horizontal/vertical in the preview.</text>
    <text x="0" y="43" class="text body">6. Lock the mount, then refocus and avoid changing zoom, focus, or resolution afterwards.</text>
    <text x="0" y="50" class="text body">7. This gets the camera mechanically close; software calibration still handles the final perspective.</text>
    <text x="0" y="61" class="text small">Tip: Perpendicular is good, but repeatable is more important. If the camera moves, recalibrate.</text>
  </g>
</svg>
